<svg xmlns="http://www.w3.org/2000/svg" version="1.1" xmlns:xlink="http://www.w3.org/1999/xlink" xmlns:svgjs="http://svgjs.dev/svgjs" width="1920" height="1080" preserveAspectRatio="none" viewBox="0 0 1920 1080"><g mask="url(&quot;#SvgjsMask1067&quot;)" fill="none"><rect width="1920" height="1080" x="0" y="0" fill="#0e2a47"></rect><path d="M0,549.896C123.976,551.887,250.177,615.522,364.064,566.495C483.366,515.137,580.151,406.744,619.828,283.066C658.119,163.71,597.841,40.427,572.194,-82.269C548.304,-196.56,528.287,-307.585,474.681,-411.313C407.673,-540.974,365.715,-729.283,222.719,-758.51C76.298,-788.437,-18.849,-593.239,-158.79,-540.787C-283.435,-494.068,-447.415,-563.016,-543.802,-471.208C-639.971,-379.607,-622.432,-223.281,-631.26,-90.762C-639.484,32.696,-641.67,157.064,-593.24,270.924C-544.015,386.653,-470.432,501.401,-356.625,554.919C-246.816,606.557,-121.328,547.947,0,549.896" fill="#0b2239"></path><path d="M1920 1753.325C2072.126 1736.5 2231.963 1846.76 2369.136 1778.8690000000001 2508.189 1710.048 2554.964 1540.252 2627.561 1403.132 2704.753 1257.334 2831.034 1115.679 2806.639 952.521 2782.257 789.447 2630.315 679.822 2503.633 574.279 2392.721 481.874 2261.329 429.625 2124.342 384.076 1982.511 336.91600000000005 1831.875 251.05200000000002 1692.2930000000001 304.50199999999995 1553.216 357.759 1525.143 540.829 1425.636 651.631 1323.574 765.279 1147.152 816.543 1101.5320000000002 962.322 1054.742 1111.84 1138.3049999999998 1265.868 1186.796 1414.843 1241.33 1582.383 1242.161 1811.972 1402.13 1885.821 1567.251 1962.049 1739.2350000000001 1773.318 1920 1753.325" fill="#113255"></path></g><defs><mask id="SvgjsMask1067"><rect width="1920" height="1080" fill="#ffffff"></rect></mask></defs></svg>