<svg id="visual"
 viewBox="0 0 1920 1080" width="1920" height="1080" xmlns="http://www.w3.org/2000/svg" 
 xmlns:xlink="http://www.w3.org/1999/xlink" version="1.1"><rect x="0" y="0" width="1920"
  height="1080" fill="#ffffff"></rect><path d="M0 764L175 782L349 774L524 715L698 721L873 758L1047 
  747L1222 710L1396 762L1571 743L1745 781L1920 762L1920 1081L1745 1081L1571 1081L1396 1081L1222 1081L1047 1081L873
   1081L698 1081L524 1081L349 1081L175 1081L0 1081Z" fill="#e3a195"></path><path d="M0 792L175 762L349 764L524 
   805L698 761L873 782L1047 775L1222 765L1396 773L1571 767L1745 739L1920 785L1920 1081L1745 1081L1571 1081L1396
    1081L1222 1081L1047 1081L873 1081L698 1081L524 1081L349 1081L175 1081L0 1081Z" fill="#d79493"></path>
    <path d="M0 788L175 834L349 814L524 801L698 779L873 818L1047 807L1222 795L1396 806L1571 773L1745 810L1920 796L1920 1081L1745 
    1081L1571 1081L1396 1081L1222 1081L1047 1081L873 1081L698 1081L524 1081L349 1081L175 1081L0 1081Z" fill="#ca8892">
    </path><path d="M0 826L175 861L349 826L524 824L698 811L873 866L1047 825L1222 839L1396 866L1571 810L1745 865L1920 837L1920 1081L1745 1081L1571 1081L1396 1081L1222 1081L1047 1081L873 1081L698 1081L524 1081L349 1081L175 1081L0 1081Z" fill="#ba7d90"></path><path d="M0 884L175 867L349 858L524 866L698 866L873 890L1047 861L1222 849L1396 870L1571 848L1745 874L1920 895L1920 1081L1745 1081L1571 1081L1396 1081L1222 1081L1047 1081L873 1081L698 1081L524 1081L349 1081L175 1081L0 1081Z" fill="#a8738e"></path><path d="M0 917L175 888L349 913L524 908L698 921L873 905L1047 907L1222 910L1396 916L1571 895L1745 879L1920 920L1920 1081L1745 1081L1571 1081L1396 1081L1222 1081L1047 1081L873 1081L698 1081L524 1081L349 1081L175 1081L0 1081Z" fill="#956a8b"></path><path d="M0 943L175 920L349 931L524 943L698 954L873 938L1047 946L1222 931L1396 937L1571 943L1745 921L1920 949L1920 1081L1745 1081L1571 1081L1396 1081L1222 1081L1047 1081L873 1081L698 1081L524 1081L349 1081L175 1081L0 1081Z" fill="#816287"></path><path d="M0 978L175 950L349 963L524 953L698 969L873 958L1047 969L1222 980L1396 965L1571 981L1745 953L1920 981L1920 1081L1745 1081L1571 1081L1396 1081L1222 1081L1047 1081L873 1081L698 1081L524 1081L349 1081L175 1081L0 1081Z" fill="#6b5a81"></path><path d="M0 1006L175 1001L349 1010L524 995L698 1006L873 1007L1047 992L1222 1006L1396 1001L1571 999L1745 1008L1920 999L1920 1081L1745 1081L1571 1081L1396 1081L1222 1081L1047 1081L873 1081L698 1081L524 1081L349 1081L175 1081L0 1081Z" fill="#555279"></path><path d="M0 1036L175 1038L349 1039L524 1030L698 1021L873 1039L1047 1036L1222 1038L1396 1029L1571 1024L1745 1038L1920 1032L1920 1081L1745 1081L1571 1081L1396 1081L1222 1081L1047 1081L873 1081L698 1081L524 1081L349 1081L175 1081L0 1081Z" fill="#3f4b70">
    </path></svg>