<svg id="visual" viewBox="0 0 1920 920" width="1920" height="920" xmlns="http://www.w3.org/2000/svg" xmlns:xlink="http://www.w3.org/1999/xlink" version="1.1"><rect x="0" y="0" width="1920" height="920" fill="#ffffff"></rect><defs><linearGradient id="grad1_0" x1="52.1%" y1="0%" x2="100%" y2="100%"><stop offset="8.260869565217394%" stop-color="#ffffff" stop-opacity="1"></stop><stop offset="91.73913043478261%" stop-color="#ffffff" stop-opacity="1"></stop></linearGradient></defs><defs><linearGradient id="grad2_0" x1="0%" y1="0%" x2="47.9%" y2="100%"><stop offset="8.260869565217394%" stop-color="#ffffff" stop-opacity="1"></stop><stop offset="91.73913043478261%" stop-color="#ffffff" stop-opacity="1"></stop></linearGradient></defs><g transform="translate(1920, 0)"><path d="M0 644C-83.2 634.5 -166.4 625.1 -246.4 595C-326.5 564.9 -403.5 514.2 -446.9 446.9C-490.3 379.6 -500.3 295.8 -527.5 218.5C-554.8 141.3 -599.4 70.6 -644 0L0 0Z" fill="#4c3eb3"></path></g><g transform="translate(0, 920)"><path d="M0 -644C75.8 -616.4 151.5 -588.8 233.1 -562.6C314.6 -536.5 401.9 -511.8 455.4 -455.4C508.9 -399 528.5 -310.8 554.3 -229.6C580.1 -148.4 612.1 -74.2 644 0L0 0Z" fill="#4c3eb3"></path></g></svg>