<svg width="1920" height="1080" viewBox="0 0 1920 1080" xmlns="http://www.w3.org/2000/svg"><path d="M1920,1080C1601,1083,297.8333333333333,1088.1666666666667,0,1080C-297.8333333333333,1071.8333333333333,88.16666666666666,1093.1666666666667,133,1031C177.83333333333334,968.8333333333334,223.16666666666666,711.8333333333334,269,707C314.8333333333333,702.1666666666666,362.1666666666667,988.6666666666666,408,1002C453.8333333333333,1015.3333333333334,498.5,780,544,787C589.5,794,635.6666666666666,1044.6666666666667,681,1044C726.3333333333334,1043.3333333333333,769.8333333333334,803.6666666666666,816,783C862.1666666666666,762.3333333333334,911.3333333333334,908,958,920C1004.6666666666666,932,1050.3333333333333,884,1096,855C1141.6666666666667,826,1186.8333333333333,708.6666666666666,1232,746C1277.1666666666667,783.3333333333334,1322,1090.5,1367,1079C1412,1067.5,1456.6666666666667,699.6666666666666,1502,677C1547.3333333333333,654.3333333333334,1592.6666666666667,929,1639,943C1685.3333333333333,957,1734.1666666666667,741.1666666666666,1780,761C1825.8333333333333,780.8333333333334,1890.6666666666667,1008.8333333333334,1914,1062C1937.3333333333333,1115.1666666666667,2239,1077,1920,1080C1601,1083,297.8333333333333,1088.1666666666667,0,1080" fill="#a5a7ee"/></svg>